<svg width="214" height="43" viewBox="0 0 214 43" fill="none" xmlns="http://www.w3.org/2000/svg">
<line x1="14" y1="9" x2="214" y2="9" stroke="#DCDCDC" stroke-width="2"/>
<line x1="14" y1="9" x2="133" y2="9" stroke="black" stroke-width="2"/>
<circle cx="14" cy="9" r="8" fill="#EBEBEB" stroke="black" stroke-width="2"/>
<circle cx="133" cy="9" r="8" fill="#EBEBEB" stroke="black" stroke-width="2"/>
<path opacity="0.3" d="M5.25726 36.14C4.54792 36.14 3.95526 36.0047 3.47926 35.734C3.00326 35.4633 2.63926 35.09 2.38726 34.614C2.13526 34.1287 1.99526 33.578 1.96726 32.962C1.95792 32.8033 1.95326 32.6027 1.95326 32.36C1.95326 32.108 1.95792 31.9073 1.96726 31.758C1.99526 31.1327 2.13526 30.582 2.38726 30.106C2.64859 29.63 3.01726 29.2567 3.49326 28.986C3.96926 28.7153 4.55726 28.58 5.25726 28.58C5.95726 28.58 6.54526 28.7153 7.02126 28.986C7.49726 29.2567 7.86126 29.63 8.11326 30.106C8.37459 30.582 8.51926 31.1327 8.54726 31.758C8.55659 31.9073 8.56126 32.108 8.56126 32.36C8.56126 32.6027 8.55659 32.8033 8.54726 32.962C8.51926 33.578 8.37926 34.1287 8.12726 34.614C7.87526 35.09 7.51126 35.4633 7.03526 35.734C6.55926 36.0047 5.96659 36.14 5.25726 36.14ZM5.25726 35.062C5.83592 35.062 6.29792 34.88 6.64326 34.516C6.98859 34.1427 7.17526 33.6013 7.20326 32.892C7.21259 32.752 7.21726 32.5747 7.21726 32.36C7.21726 32.1453 7.21259 31.968 7.20326 31.828C7.17526 31.1187 6.98859 30.582 6.64326 30.218C6.29792 29.8447 5.83592 29.658 5.25726 29.658C4.67859 29.658 4.21192 29.8447 3.85726 30.218C3.51192 30.582 3.32992 31.1187 3.31126 31.828C3.30192 31.968 3.29726 32.1453 3.29726 32.36C3.29726 32.5747 3.30192 32.752 3.31126 32.892C3.32992 33.6013 3.51192 34.1427 3.85726 34.516C4.21192 34.88 4.67859 35.062 5.25726 35.062ZM12.5403 36C12.447 36 12.3677 35.972 12.3023 35.916C12.2463 35.8507 12.2183 35.7713 12.2183 35.678V29.84H9.78232C9.68899 29.84 9.60965 29.812 9.54432 29.756C9.48832 29.6907 9.46032 29.6113 9.46032 29.518V29.042C9.46032 28.9487 9.48832 28.874 9.54432 28.818C9.60965 28.7527 9.68899 28.72 9.78232 28.72H15.9423C16.0357 28.72 16.1103 28.7527 16.1663 28.818C16.2317 28.874 16.2643 28.9487 16.2643 29.042V29.518C16.2643 29.6113 16.2317 29.6907 16.1663 29.756C16.1103 29.812 16.0357 29.84 15.9423 29.84H13.5063V35.678C13.5063 35.7713 13.4783 35.8507 13.4223 35.916C13.3663 35.972 13.287 36 13.1843 36H12.5403ZM24.312 36.14C23.668 36.14 23.122 36.042 22.674 35.846C22.2354 35.6407 21.876 35.3607 21.596 35.006C21.316 34.6513 21.1107 34.2453 20.98 33.788C20.8587 33.3307 20.7887 32.8453 20.77 32.332C20.7607 32.08 20.7514 31.814 20.742 31.534C20.742 31.254 20.742 30.974 20.742 30.694C20.7514 30.4047 20.7607 30.1293 20.77 29.868C20.7794 29.3547 20.8494 28.8693 20.98 28.412C21.12 27.9453 21.3254 27.5393 21.596 27.194C21.876 26.8393 22.24 26.564 22.688 26.368C23.136 26.1627 23.6774 26.06 24.312 26.06C24.956 26.06 25.4974 26.1627 25.936 26.368C26.384 26.564 26.748 26.8393 27.028 27.194C27.308 27.5393 27.5134 27.9453 27.644 28.412C27.784 28.8693 27.8587 29.3547 27.868 29.868C27.8774 30.1293 27.882 30.4047 27.882 30.694C27.8914 30.974 27.8914 31.254 27.882 31.534C27.882 31.814 27.8774 32.08 27.868 32.332C27.8587 32.8453 27.784 33.3307 27.644 33.788C27.5134 34.2453 27.308 34.6513 27.028 35.006C26.7574 35.3607 26.398 35.6407 25.95 35.846C25.5114 36.042 24.9654 36.14 24.312 36.14ZM24.312 34.95C25.04 34.95 25.5767 34.712 25.922 34.236C26.2767 33.7507 26.4587 33.0927 26.468 32.262C26.4867 31.9913 26.496 31.73 26.496 31.478C26.496 31.2167 26.496 30.96 26.496 30.708C26.496 30.4467 26.4867 30.19 26.468 29.938C26.4587 29.126 26.2767 28.4773 25.922 27.992C25.5767 27.4973 25.04 27.25 24.312 27.25C23.5934 27.25 23.0567 27.4973 22.702 27.992C22.3567 28.4773 22.1747 29.126 22.156 29.938C22.156 30.19 22.1514 30.4467 22.142 30.708C22.142 30.96 22.142 31.2167 22.142 31.478C22.1514 31.73 22.156 31.9913 22.156 32.262C22.1747 33.0927 22.3614 33.7507 22.716 34.236C23.0707 34.712 23.6027 34.95 24.312 34.95Z" fill="black"/>
<path opacity="0.3" d="M105.697 37.54C105.604 37.54 105.524 37.5073 105.459 37.442C105.403 37.386 105.375 37.3113 105.375 37.218V35.202C105.375 35.1087 105.403 35.034 105.459 34.978C105.524 34.9127 105.604 34.88 105.697 34.88H105.767C106.019 34.8707 106.234 34.7307 106.411 34.46C106.588 34.18 106.724 33.746 106.817 33.158C106.91 32.5607 106.957 31.786 106.957 30.834V29.042C106.957 28.9487 106.985 28.874 107.041 28.818C107.106 28.7527 107.186 28.72 107.279 28.72H111.745C111.838 28.72 111.913 28.7527 111.969 28.818C112.034 28.874 112.067 28.9487 112.067 29.042V34.852H112.725C112.828 34.852 112.907 34.8847 112.963 34.95C113.019 35.006 113.047 35.0807 113.047 35.174V37.218C113.047 37.3113 113.019 37.386 112.963 37.442C112.907 37.5073 112.828 37.54 112.725 37.54H112.067C111.974 37.54 111.894 37.5073 111.829 37.442C111.773 37.386 111.745 37.3113 111.745 37.218V36H106.677V37.218C106.677 37.3113 106.644 37.386 106.579 37.442C106.523 37.5073 106.448 37.54 106.355 37.54H105.697ZM107.433 34.88L110.765 34.852V29.84H108.231V30.988C108.231 31.9773 108.161 32.7893 108.021 33.424C107.881 34.0493 107.685 34.5347 107.433 34.88ZM117.494 36.14C116.784 36.14 116.192 36.0047 115.716 35.734C115.24 35.4633 114.876 35.09 114.624 34.614C114.372 34.1287 114.232 33.578 114.204 32.962C114.194 32.8033 114.19 32.6027 114.19 32.36C114.19 32.108 114.194 31.9073 114.204 31.758C114.232 31.1327 114.372 30.582 114.624 30.106C114.885 29.63 115.254 29.2567 115.73 28.986C116.206 28.7153 116.794 28.58 117.494 28.58C118.194 28.58 118.782 28.7153 119.258 28.986C119.734 29.2567 120.098 29.63 120.35 30.106C120.611 30.582 120.756 31.1327 120.784 31.758C120.793 31.9073 120.798 32.108 120.798 32.36C120.798 32.6027 120.793 32.8033 120.784 32.962C120.756 33.578 120.616 34.1287 120.364 34.614C120.112 35.09 119.748 35.4633 119.272 35.734C118.796 36.0047 118.203 36.14 117.494 36.14ZM117.494 35.062C118.072 35.062 118.534 34.88 118.88 34.516C119.225 34.1427 119.412 33.6013 119.44 32.892C119.449 32.752 119.454 32.5747 119.454 32.36C119.454 32.1453 119.449 31.968 119.44 31.828C119.412 31.1187 119.225 30.582 118.88 30.218C118.534 29.8447 118.072 29.658 117.494 29.658C116.915 29.658 116.448 29.8447 116.094 30.218C115.748 30.582 115.566 31.1187 115.548 31.828C115.538 31.968 115.534 32.1453 115.534 32.36C115.534 32.5747 115.538 32.752 115.548 32.892C115.566 33.6013 115.748 34.1427 116.094 34.516C116.448 34.88 116.915 35.062 117.494 35.062ZM129.034 36.14C128.297 36.14 127.672 36.014 127.158 35.762C126.654 35.5007 126.267 35.1647 125.996 34.754C125.735 34.3433 125.595 33.9093 125.576 33.452C125.567 33.368 125.59 33.3027 125.646 33.256C125.702 33.2093 125.772 33.186 125.856 33.186H126.612C126.696 33.186 126.771 33.2047 126.836 33.242C126.902 33.2793 126.953 33.3587 126.99 33.48C127.084 33.8253 127.233 34.11 127.438 34.334C127.653 34.5487 127.896 34.7073 128.166 34.81C128.446 34.9033 128.736 34.95 129.034 34.95C129.436 34.95 129.8 34.8707 130.126 34.712C130.462 34.544 130.728 34.3013 130.924 33.984C131.12 33.6573 131.218 33.2653 131.218 32.808C131.218 32.388 131.12 32.0287 130.924 31.73C130.738 31.422 130.476 31.1887 130.14 31.03C129.814 30.862 129.445 30.778 129.034 30.778C128.726 30.778 128.474 30.8153 128.278 30.89C128.082 30.9647 127.914 31.0533 127.774 31.156C127.644 31.2587 127.522 31.3473 127.41 31.422C127.308 31.4967 127.191 31.534 127.06 31.534H126.332C126.248 31.534 126.174 31.506 126.108 31.45C126.043 31.3847 126.015 31.31 126.024 31.226L126.472 26.55C126.482 26.438 126.514 26.354 126.57 26.298C126.636 26.2327 126.72 26.2 126.822 26.2H131.708C131.802 26.2 131.876 26.2327 131.932 26.298C131.998 26.354 132.03 26.4287 132.03 26.522V27.068C132.03 27.1707 131.998 27.25 131.932 27.306C131.876 27.362 131.802 27.39 131.708 27.39H127.676L127.41 30.148C127.541 30.064 127.751 29.966 128.04 29.854C128.33 29.7327 128.726 29.672 129.23 29.672C129.688 29.672 130.117 29.742 130.518 29.882C130.929 30.022 131.293 30.2273 131.61 30.498C131.928 30.7687 132.175 31.1 132.352 31.492C132.53 31.8747 132.618 32.318 132.618 32.822C132.618 33.5313 132.46 34.1333 132.142 34.628C131.834 35.1227 131.41 35.5007 130.868 35.762C130.336 36.014 129.725 36.14 129.034 36.14ZM137.697 36.14C137.053 36.14 136.507 36.042 136.059 35.846C135.62 35.6407 135.261 35.3607 134.981 35.006C134.701 34.6513 134.495 34.2453 134.365 33.788C134.243 33.3307 134.173 32.8453 134.155 32.332C134.145 32.08 134.136 31.814 134.127 31.534C134.127 31.254 134.127 30.974 134.127 30.694C134.136 30.4047 134.145 30.1293 134.155 29.868C134.164 29.3547 134.234 28.8693 134.365 28.412C134.505 27.9453 134.71 27.5393 134.981 27.194C135.261 26.8393 135.625 26.564 136.073 26.368C136.521 26.1627 137.062 26.06 137.697 26.06C138.341 26.06 138.882 26.1627 139.321 26.368C139.769 26.564 140.133 26.8393 140.413 27.194C140.693 27.5393 140.898 27.9453 141.029 28.412C141.169 28.8693 141.243 29.3547 141.253 29.868C141.262 30.1293 141.267 30.4047 141.267 30.694C141.276 30.974 141.276 31.254 141.267 31.534C141.267 31.814 141.262 32.08 141.253 32.332C141.243 32.8453 141.169 33.3307 141.029 33.788C140.898 34.2453 140.693 34.6513 140.413 35.006C140.142 35.3607 139.783 35.6407 139.335 35.846C138.896 36.042 138.35 36.14 137.697 36.14ZM137.697 34.95C138.425 34.95 138.961 34.712 139.307 34.236C139.661 33.7507 139.843 33.0927 139.853 32.262C139.871 31.9913 139.881 31.73 139.881 31.478C139.881 31.2167 139.881 30.96 139.881 30.708C139.881 30.4467 139.871 30.19 139.853 29.938C139.843 29.126 139.661 28.4773 139.307 27.992C138.961 27.4973 138.425 27.25 137.697 27.25C136.978 27.25 136.441 27.4973 136.087 27.992C135.741 28.4773 135.559 29.126 135.541 29.938C135.541 30.19 135.536 30.4467 135.527 30.708C135.527 30.96 135.527 31.2167 135.527 31.478C135.536 31.73 135.541 31.9913 135.541 32.262C135.559 33.0927 135.746 33.7507 136.101 34.236C136.455 34.712 136.987 34.95 137.697 34.95ZM146.584 36.14C145.94 36.14 145.394 36.042 144.946 35.846C144.507 35.6407 144.148 35.3607 143.868 35.006C143.588 34.6513 143.382 34.2453 143.252 33.788C143.13 33.3307 143.06 32.8453 143.042 32.332C143.032 32.08 143.023 31.814 143.014 31.534C143.014 31.254 143.014 30.974 143.014 30.694C143.023 30.4047 143.032 30.1293 143.042 29.868C143.051 29.3547 143.121 28.8693 143.252 28.412C143.392 27.9453 143.597 27.5393 143.868 27.194C144.148 26.8393 144.512 26.564 144.96 26.368C145.408 26.1627 145.949 26.06 146.584 26.06C147.228 26.06 147.769 26.1627 148.208 26.368C148.656 26.564 149.02 26.8393 149.3 27.194C149.58 27.5393 149.785 27.9453 149.916 28.412C150.056 28.8693 150.13 29.3547 150.14 29.868C150.149 30.1293 150.154 30.4047 150.154 30.694C150.163 30.974 150.163 31.254 150.154 31.534C150.154 31.814 150.149 32.08 150.14 32.332C150.13 32.8453 150.056 33.3307 149.916 33.788C149.785 34.2453 149.58 34.6513 149.3 35.006C149.029 35.3607 148.67 35.6407 148.222 35.846C147.783 36.042 147.237 36.14 146.584 36.14ZM146.584 34.95C147.312 34.95 147.848 34.712 148.194 34.236C148.548 33.7507 148.73 33.0927 148.74 32.262C148.758 31.9913 148.768 31.73 148.768 31.478C148.768 31.2167 148.768 30.96 148.768 30.708C148.768 30.4467 148.758 30.19 148.74 29.938C148.73 29.126 148.548 28.4773 148.194 27.992C147.848 27.4973 147.312 27.25 146.584 27.25C145.865 27.25 145.328 27.4973 144.974 27.992C144.628 28.4773 144.446 29.126 144.428 29.938C144.428 30.19 144.423 30.4467 144.414 30.708C144.414 30.96 144.414 31.2167 144.414 31.478C144.423 31.73 144.428 31.9913 144.428 32.262C144.446 33.0927 144.633 33.7507 144.988 34.236C145.342 34.712 145.874 34.95 146.584 34.95ZM155.47 36.14C154.826 36.14 154.28 36.042 153.832 35.846C153.394 35.6407 153.034 35.3607 152.754 35.006C152.474 34.6513 152.269 34.2453 152.138 33.788C152.017 33.3307 151.947 32.8453 151.928 32.332C151.919 32.08 151.91 31.814 151.9 31.534C151.9 31.254 151.9 30.974 151.9 30.694C151.91 30.4047 151.919 30.1293 151.928 29.868C151.938 29.3547 152.008 28.8693 152.138 28.412C152.278 27.9453 152.484 27.5393 152.754 27.194C153.034 26.8393 153.398 26.564 153.846 26.368C154.294 26.1627 154.836 26.06 155.47 26.06C156.114 26.06 156.656 26.1627 157.094 26.368C157.542 26.564 157.906 26.8393 158.186 27.194C158.466 27.5393 158.672 27.9453 158.802 28.412C158.942 28.8693 159.017 29.3547 159.026 29.868C159.036 30.1293 159.04 30.4047 159.04 30.694C159.05 30.974 159.05 31.254 159.04 31.534C159.04 31.814 159.036 32.08 159.026 32.332C159.017 32.8453 158.942 33.3307 158.802 33.788C158.672 34.2453 158.466 34.6513 158.186 35.006C157.916 35.3607 157.556 35.6407 157.108 35.846C156.67 36.042 156.124 36.14 155.47 36.14ZM155.47 34.95C156.198 34.95 156.735 34.712 157.08 34.236C157.435 33.7507 157.617 33.0927 157.626 32.262C157.645 31.9913 157.654 31.73 157.654 31.478C157.654 31.2167 157.654 30.96 157.654 30.708C157.654 30.4467 157.645 30.19 157.626 29.938C157.617 29.126 157.435 28.4773 157.08 27.992C156.735 27.4973 156.198 27.25 155.47 27.25C154.752 27.25 154.215 27.4973 153.86 27.992C153.515 28.4773 153.333 29.126 153.314 29.938C153.314 30.19 153.31 30.4467 153.3 30.708C153.3 30.96 153.3 31.2167 153.3 31.478C153.31 31.73 153.314 31.9913 153.314 32.262C153.333 33.0927 153.52 33.7507 153.874 34.236C154.229 34.712 154.761 34.95 155.47 34.95Z" fill="black"/>
</svg>
