<svg width="7" height="11" viewBox="0 0 7 11" fill="none" xmlns="http://www.w3.org/2000/svg">
<path d="M0.399602 10.5C0.306268 10.5 0.226935 10.472 0.161602 10.416C0.105602 10.3507 0.0776016 10.2713 0.0776016 10.178V9.73C0.0776016 9.646 0.100935 9.55267 0.147602 9.45C0.194268 9.34733 0.287602 9.23533 0.427602 9.114L3.3956 6.146C3.8716 5.74467 4.24494 5.404 4.5156 5.124C4.7956 4.83467 4.9916 4.55933 5.1036 4.298C5.22494 4.03667 5.2856 3.766 5.2856 3.486C5.2856 2.954 5.13627 2.534 4.8376 2.226C4.53894 1.90867 4.0956 1.75 3.5076 1.75C3.13427 1.75 2.81227 1.82933 2.5416 1.988C2.27094 2.13733 2.05627 2.34733 1.8976 2.618C1.74827 2.87933 1.65027 3.178 1.6036 3.514C1.58493 3.63533 1.5336 3.71933 1.4496 3.766C1.37494 3.81267 1.30494 3.836 1.2396 3.836H0.511602C0.427602 3.836 0.357602 3.81267 0.301602 3.766C0.245602 3.71 0.217602 3.64467 0.217602 3.57C0.226935 3.21533 0.301602 2.86067 0.441602 2.506C0.581602 2.142 0.786935 1.81533 1.0576 1.526C1.3376 1.23667 1.67827 1.00333 2.0796 0.825999C2.49027 0.639333 2.96627 0.546 3.5076 0.546C4.24494 0.546 4.84694 0.681333 5.3136 0.951999C5.7896 1.21333 6.1396 1.56333 6.3636 2.002C6.5876 2.44067 6.6996 2.92133 6.6996 3.444C6.6996 3.85467 6.6296 4.23267 6.4896 4.578C6.3496 4.914 6.14427 5.24533 5.8736 5.572C5.61227 5.88933 5.2856 6.216 4.8936 6.552L2.2056 9.282H6.5736C6.67627 9.282 6.7556 9.31 6.8116 9.366C6.87694 9.422 6.9096 9.50133 6.9096 9.604V10.178C6.9096 10.2713 6.87694 10.3507 6.8116 10.416C6.7556 10.472 6.67627 10.5 6.5736 10.5H0.399602Z" fill="black"/>
</svg>
